<svg xmlns="http://www.w3.org/2000/svg" width="324.939" height="87.4" viewBox="0 0 324.939 87.4"><defs><style>.a{fill:#f5c518;}.b{fill:#fff;}</style></defs><g transform="translate(-790 -708)"><path class="a" d="M59.9,38.7H87.4V87.4H0V38.7H27.5V63H59.8V38.7Zm0-28.7H27.5V34.4H59.8V10Z" transform="translate(877.4 708) rotate(90)"/><path class="b" d="M11.2-14.148H24.611L31.1-39.972,37.38-14.148H50.863L61.635-53.954H50.15L44.585-25.633,37.808-53.954H24.9L18.19-25.49,12.555-53.954H.356Zm94.023-19.9c0-12.627-8.989-20.474-20.688-20.474-11.628,0-20.688,7.847-20.688,20.474s8.846,20.474,20.545,20.474S105.222-21.424,105.222-34.051Zm-28.963,0c0-6.777,3.852-9.916,8.275-9.916,4.28,0,8.275,3.139,8.275,9.916,0,6.706-4.066,9.916-8.418,9.916C79.969-24.135,76.259-27.345,76.259-34.051Zm31.674-19.9,14.125,39.806H137.11l14.125-39.806H138.251l-8.632,28.392-8.632-28.392Zm48.438,39.806h12.2V-53.954h-12.2Zm6.135-43.944c4.28,0,7.205-2.925,7.205-6.563,0-3.71-2.925-6.634-7.205-6.634-4.352,0-7.276,2.925-7.276,6.634C155.23-61.016,158.154-58.092,162.506-58.092Zm32.459,13.34c4.066,0,7.49,2.5,7.49,6.848H187.189C187.9-42.326,190.97-44.751,194.965-44.751Zm19.047,17.406H201.028a6.486,6.486,0,0,1-6.349,3.852c-3.924,0-7.134-2.425-7.562-7.633h27.608a30.831,30.831,0,0,0,.214-3.567c0-12.127-8.2-19.832-19.832-19.832-11.842,0-20.117,7.847-20.117,20.474s8.418,20.474,20.117,20.474C205.023-13.577,212.086-19.569,214.012-27.345Z" transform="translate(900 785.289)"/></g></svg>